Normalized EMG Linear Envelopes
nRows=227
nColumns=4

endheader
time	 med_gas_r	  soleus_r	 tib_ant_r	
2.22883	  0.003282	  0.005737	  0.001591	
2.2621	  0.003333	  0.005664	  0.001592	
2.29536	  0.003394	  0.005623	  0.001599	
2.32863	  0.003461	  0.005623	  0.001616	
2.3619	  0.003518	  0.005667	  0.001643	
2.39516	  0.003553	  0.005740	  0.001671	
2.42843	  0.003544	  0.005822	  0.001690	
2.46169	  0.003490	  0.005906	  0.001697	
2.49496	  0.003414	  0.005987	  0.001692	
2.52823	  0.003340	  0.006046	  0.001677	
2.56149	  0.003289	  0.006064	  0.001652	
2.59476	  0.003271	  0.006035	  0.001625	
2.62802	  0.003297	  0.005960	  0.001602	
2.66129	  0.003356	  0.005856	  0.001581	
2.69456	  0.003424	  0.005745	  0.001561	
2.72782	  0.003485	  0.005646	  0.001545	
2.76109	  0.003529	  0.005576	  0.001539	
2.79435	  0.003549	  0.005542	  0.001547	
2.82762	  0.003543	  0.005541	  0.001570	
2.86089	  0.003512	  0.005560	  0.001606	
2.89415	  0.003460	  0.005600	  0.001649	
2.92742	  0.003399	  0.005671	  0.001690	
2.96069	  0.003345	  0.005771	  0.001722	
2.99395	  0.003309	  0.005876	  0.001737	
3.02722	  0.003287	  0.005951	  0.001732	
3.06048	  0.003275	  0.005967	  0.001712	
3.09375	  0.003266	  0.005927	  0.001688	
3.12702	  0.003243	  0.005855	  0.001663	
3.16028	  0.003211	  0.005768	  0.001642	
3.19355	  0.003188	  0.005679	  0.001625	
3.22681	  0.003175	  0.005595	  0.001614	
3.26008	  0.003166	  0.005541	  0.001610	
3.29335	  0.003162	  0.005535	  0.001616	
3.32661	  0.003171	  0.005577	  0.001632	
3.35988	  0.003193	  0.005652	  0.001654	
3.39315	  0.003222	  0.005740	  0.001675	
3.42641	  0.003246	  0.005806	  0.001691	
3.45968	  0.003252	  0.005836	  0.001694	
3.49294	  0.003244	  0.005842	  0.001685	
3.52621	  0.003249	  0.005843	  0.001667	
3.55948	  0.003288	  0.005850	  0.001647	
3.59274	  0.003360	  0.005877	  0.001629	
3.62601	  0.003440	  0.005912	  0.001619	
3.65927	  0.003488	  0.005926	  0.001619	
3.69254	  0.003486	  0.005915	  0.001635	
3.72581	  0.003437	  0.005886	  0.001672	
3.75907	  0.003362	  0.005851	  0.001732	
3.79234	  0.003285	  0.005833	  0.001817	
3.8256	  0.003229	  0.005839	  0.001925	
3.85887	  0.003207	  0.005871	  0.002049	
3.89214	  0.003218	  0.005943	  0.002170	
3.9254	  0.003250	  0.006067	  0.002259	
3.95867	  0.003280	  0.006223	  0.002265	
3.99194	  0.003297	  0.006373	  0.002122	
4.0252	  0.003293	  0.006469	  0.001743	
4.05847	  0.003258	  0.006458	  0.001019	
4.09173	  0.003186	  0.006293	 -0.000157	
4.125	  0.003082	  0.005934	 -0.001870	
4.15827	  0.002948	  0.005392	 -0.004142	
4.19153	  0.002788	  0.004717	 -0.006891	
4.2248	  0.002615	  0.003969	 -0.009861	
4.25806	  0.002443	  0.003219	 -0.012548	
4.29133	  0.002307	  0.002573	 -0.014111	
4.3246	  0.002262	  0.002236	 -0.013290	
4.35786	  0.002378	  0.002528	 -0.008366	
4.39113	  0.002746	  0.003871	  0.002799	
4.4244	  0.003471	  0.006779	  0.022606	
4.45766	  0.004655	  0.011791	  0.053391	
4.49093	  0.006377	  0.019398	  0.096823	
4.52419	  0.008684	  0.029890	  0.152990	
4.55746	  0.011530	  0.043154	  0.219105	
4.59073	  0.014707	  0.058376	  0.288040	
4.62399	  0.017861	  0.073979	  0.350915	
4.65726	  0.020576	  0.088224	  0.402096	
4.69052	  0.022417	  0.099142	  0.438699	
4.72379	  0.023304	  0.105389	  0.462740	
4.75706	  0.023481	  0.107700	  0.478941	
4.79032	  0.023323	  0.107515	  0.490986	
4.82359	  0.023120	  0.106438	  0.499776	
4.85685	  0.023090	  0.105619	  0.506974	
4.89012	  0.023316	  0.105667	  0.515204	
4.92339	  0.023793	  0.107133	  0.525914	
4.95665	  0.024431	  0.110047	  0.537333	
4.98992	  0.025165	  0.114021	  0.547543	
5.02319	  0.026001	  0.118688	  0.556648	
5.05645	  0.026970	  0.124068	  0.565347	
5.08972	  0.028018	  0.130123	  0.575963	
5.12298	  0.028902	  0.135796	  0.589869	
5.15625	  0.029603	  0.140138	  0.607771	
5.18952	  0.030225	  0.142959	  0.628238	
5.22278	  0.030834	  0.144830	  0.649691	
5.25605	  0.031327	  0.146687	  0.670573	
5.28931	  0.031687	  0.148657	  0.690829	
5.32258	  0.032142	  0.151159	  0.712481	
5.35585	  0.032809	  0.154742	  0.737884	
5.38911	  0.033614	  0.159193	  0.766888	
5.42238	  0.034506	  0.164232	  0.796180	
5.45565	  0.035650	  0.170581	  0.824304	
5.48891	  0.037100	  0.179227	  0.847333	
5.52218	  0.038558	  0.189225	  0.858519	
5.55544	  0.039658	  0.198606	  0.857343	
5.58871	  0.040209	  0.205698	  0.845725	
5.62198	  0.040176	  0.210445	  0.826868	
5.65524	  0.039495	  0.213377	  0.803497	
5.68851	  0.038409	  0.215287	  0.778979	
5.72177	  0.037337	  0.216857	  0.754960	
5.75504	  0.036490	  0.217230	  0.733860	
5.78831	  0.035864	  0.213984	  0.716804	
5.82157	  0.035608	  0.207149	  0.707474	
5.85484	  0.035740	  0.198365	  0.709586	
5.8881	  0.036018	  0.189773	  0.721349	
5.92137	  0.036228	  0.183075	  0.737581	
5.95464	  0.036235	  0.178347	  0.754068	
5.9879	  0.035992	  0.174169	  0.768748	
6.02117	  0.035580	  0.169108	  0.780632	
6.05444	  0.035067	  0.163150	  0.789674	
6.0877	  0.034577	  0.156527	  0.796350	
6.12097	  0.034307	  0.150676	  0.802811	
6.15423	  0.034364	  0.147243	  0.812018	
6.1875	  0.034815	  0.146960	  0.826380	
6.22077	  0.035537	  0.149494	  0.842544	
6.25403	  0.036301	  0.154020	  0.855259	
6.2873	  0.036998	  0.159987	  0.860879	
6.32056	  0.037590	  0.167219	  0.856278	
6.35383	  0.038003	  0.175066	  0.841483	
6.3871	  0.038328	  0.182104	  0.816531	
6.42036	  0.038646	  0.186382	  0.784265	
6.45363	  0.038920	  0.185746	  0.751091	
6.4869	  0.039221	  0.179908	  0.725112	
6.52016	  0.039603	  0.171051	  0.709821	
6.55343	  0.039995	  0.161666	  0.703552	
6.58669	  0.040262	  0.153303	  0.706256	
6.61996	  0.040302	  0.146562	  0.717652	
6.65323	  0.040199	  0.142087	  0.736677	
6.68649	  0.040059	  0.140773	  0.759604	
6.71976	  0.039945	  0.142483	  0.779124	
6.75302	  0.040090	  0.146449	  0.790439	
6.78629	  0.040579	  0.151924	  0.794098	
6.81956	  0.041447	  0.157666	  0.795087	
6.85282	  0.042570	  0.162100	  0.797404	
6.88609	  0.043816	  0.165168	  0.801711	
6.91935	  0.044945	  0.168064	  0.806092	
6.95262	  0.045525	  0.170622	  0.808430	
6.98589	  0.045291	  0.172101	  0.807279	
7.01915	  0.044517	  0.173651	  0.803293	
7.05242	  0.043381	  0.175678	  0.795479	
7.08569	  0.042286	  0.177718	  0.782708	
7.11895	  0.041456	  0.178894	  0.765624	
7.15222	  0.040899	  0.180359	  0.748363	
7.18548	  0.040597	  0.182894	  0.735064	
7.21875	  0.040511	  0.185726	  0.726573	
7.25202	  0.040449	  0.187111	  0.723360	
7.28528	  0.040271	  0.186492	  0.729443	
7.31855	  0.039873	  0.184059	  0.745999	
7.35181	  0.039159	  0.179067	  0.767292	
7.38508	  0.038092	  0.170485	  0.785203	
7.41835	  0.036807	  0.159575	  0.795323	
7.45161	  0.035645	  0.149097	  0.797723	
7.48488	  0.034902	  0.140711	  0.793617	
7.51815	  0.034859	  0.134725	  0.789560	
7.55141	  0.035485	  0.130554	  0.788152	
7.58468	  0.036599	  0.127606	  0.787415	
7.61794	  0.037731	  0.125429	  0.782949	
7.65121	  0.038420	  0.123296	  0.773860	
7.68448	  0.038722	  0.121764	  0.768449	
7.71774	  0.038931	  0.122026	  0.775416	
7.75101	  0.039078	  0.124877	  0.797810	
7.78427	  0.039356	  0.130810	  0.833191	
7.81754	  0.040009	  0.139831	  0.873252	
7.85081	  0.040907	  0.151145	  0.910689	
7.88407	  0.041852	  0.162999	  0.938819	
7.91734	  0.042798	  0.173712	  0.952072	
7.9506	  0.043863	  0.181881	  0.948315	
7.98387	  0.045097	  0.187112	  0.930103	
8.01714	  0.046425	  0.190403	  0.900961	
8.0504	  0.047726	  0.192988	  0.865818	
8.08367	  0.048765	  0.194717	  0.831808	
8.11694	  0.049316	  0.195656	  0.802604	
8.1502	  0.049430	  0.196395	  0.776851	
8.18347	  0.049428	  0.197389	  0.752896	
8.21673	  0.049277	  0.197947	  0.731283	
8.25	  0.048882	  0.196823	  0.715752	
8.28327	  0.048315	  0.194445	  0.710453	
8.31653	  0.047643	  0.191411	  0.716593	
8.3498	  0.047152	  0.187640	  0.730241	
8.38306	  0.047087	  0.183430	  0.744182	
8.41633	  0.047519	  0.180105	  0.752439	
8.4496	  0.048465	  0.178623	  0.755297	
8.48286	  0.049670	  0.179285	  0.753586	
8.51613	  0.050830	  0.182518	  0.746129	
8.5494	  0.051523	  0.187483	  0.736388	
8.58266	  0.051234	  0.191817	  0.728411	
8.61593	  0.049967	  0.194829	  0.729217	
8.64919	  0.048116	  0.196973	  0.743048	
8.68246	  0.046110	  0.198167	  0.768645	
8.71573	  0.044197	  0.197375	  0.804489	
8.74899	  0.042632	  0.194169	  0.846477	
8.78226	  0.041737	  0.190369	  0.886645	
8.81552	  0.041696	  0.188613	  0.914919	
8.84879	  0.042563	  0.190407	  0.930414	
8.88206	  0.044027	  0.196132	  0.936456	
8.91532	  0.045524	  0.205194	  0.931822	
8.94859	  0.046579	  0.216286	  0.912840	
8.98185	  0.047124	  0.226650	  0.877985	
9.01512	  0.047050	  0.232589	  0.829923	
9.04839	  0.046325	  0.231466	  0.773976	
9.08165	  0.045096	  0.224681	  0.715748	
9.11492	  0.043718	  0.216550	  0.660984	
9.14819	  0.042488	  0.209794	  0.613527	
9.18145	  0.041390	  0.205081	  0.576425	
9.21472	  0.040467	  0.202153	  0.548963	
9.24798	  0.039636	  0.200325	  0.526114	
9.28125	  0.038712	  0.199274	  0.503518	
9.31452	  0.037340	  0.198196	  0.478690	
9.34778	  0.035097	  0.194312	  0.448581	
9.38105	  0.031782	  0.183871	  0.408998	
9.41431	  0.027625	  0.166582	  0.358860	
9.44758	  0.022912	  0.143602	  0.299311	
9.48085	  0.018110	  0.117395	  0.234824	
9.51411	  0.013705	  0.090921	  0.171735	
9.54738	  0.010002	  0.066505	  0.115738	
9.58065	  0.007124	  0.045603	  0.070303	
9.61391	  0.005053	  0.029131	  0.036413	
9.64718	  0.003674	  0.017204	  0.013251	
9.68044	  0.002845	  0.009333	 -0.000982	
9.71371	  0.002427	  0.004692	 -0.008405	
9.74698	  0.002294	  0.002394	 -0.011065	
